<svg width="20" height="20" viewBox="0 0 20 20"  xmlns="http://www.w3.org/2000/svg">
<path d="M9.9002 6C10.1583 6 10.401 6.10052 10.5835 6.28303C10.9602 6.6598 10.9602 7.27282 10.5835 7.64954L9.38077 8.85224C9.35037 8.88267 9.34129 8.92838 9.35773 8.96809C9.37416 9.00781 9.41296 9.03373 9.45593 9.03373H13.6621C14.1949 9.03373 14.6284 9.4672 14.6284 10C14.6284 10.5328 14.1949 10.9663 13.6621 10.9663H9.45593C9.41296 10.9663 9.37416 10.9922 9.35773 11.0319C9.34129 11.0716 9.35037 11.1174 9.38077 11.1477L10.5835 12.3504C10.9602 12.7272 10.9602 13.3402 10.5835 13.717C10.401 13.8995 10.1583 14 9.9002 14C9.64207 14 9.39944 13.8995 9.21694 13.717L6.20706 10.7071C5.81653 10.3166 5.81653 9.68344 6.20705 9.29291L9.21694 6.28303C9.39944 6.10052 9.64207 6 9.9002 6Z" />
</svg>
